<svg width="170" height="33" viewBox="0 0 170 33" fill="none" xmlns="http://www.w3.org/2000/svg">
<path d="M65.18 22.92H73.16V26H61.96V6.4H65.18V22.92ZM100.892 23.424C98.932 25.384 96.5334 26.364 93.696 26.364C90.8587 26.364 88.4507 25.384 86.472 23.424C84.512 21.4453 83.532 19.0373 83.532 16.2C83.532 13.3627 84.512 10.964 86.472 9.004C88.4507 7.02533 90.8587 6.036 93.696 6.036C96.5334 6.036 98.932 7.02533 100.892 9.004C102.871 10.964 103.86 13.3627 103.86 16.2C103.86 19.0373 102.871 21.4453 100.892 23.424ZM88.74 21.24C90.084 22.5653 91.736 23.228 93.696 23.228C95.656 23.228 97.2987 22.5653 98.624 21.24C99.968 19.896 100.64 18.216 100.64 16.2C100.64 14.184 99.968 12.5133 98.624 11.188C97.2987 9.844 95.656 9.172 93.696 9.172C91.736 9.172 90.084 9.844 88.74 11.188C87.4147 12.5133 86.752 14.184 86.752 16.2C86.752 18.216 87.4147 19.896 88.74 21.24ZM136.085 15.864V17.208C136.085 19.896 135.199 22.0987 133.425 23.816C131.652 25.5147 129.337 26.364 126.481 26.364C123.457 26.364 120.956 25.384 118.977 23.424C117.017 21.464 116.037 19.056 116.037 16.2C116.037 13.3627 117.017 10.964 118.977 9.004C120.956 7.02533 123.401 6.036 126.313 6.036C128.143 6.036 129.813 6.456 131.325 7.296C132.837 8.136 134.013 9.26533 134.853 10.684L132.081 12.28C131.559 11.3467 130.784 10.6 129.757 10.04C128.731 9.46133 127.583 9.172 126.313 9.172C124.26 9.172 122.571 9.844 121.245 11.188C119.92 12.532 119.257 14.212 119.257 16.228C119.257 18.244 119.92 19.9147 121.245 21.24C122.589 22.5653 124.344 23.228 126.509 23.228C128.245 23.228 129.655 22.8267 130.737 22.024C131.839 21.2027 132.539 20.1107 132.837 18.748H126.285V15.864H136.085ZM165.629 23.424C163.669 25.384 161.27 26.364 158.433 26.364C155.596 26.364 153.188 25.384 151.209 23.424C149.249 21.4453 148.269 19.0373 148.269 16.2C148.269 13.3627 149.249 10.964 151.209 9.004C153.188 7.02533 155.596 6.036 158.433 6.036C161.27 6.036 163.669 7.02533 165.629 9.004C167.608 10.964 168.597 13.3627 168.597 16.2C168.597 19.0373 167.608 21.4453 165.629 23.424ZM153.477 21.24C154.821 22.5653 156.473 23.228 158.433 23.228C160.393 23.228 162.036 22.5653 163.361 21.24C164.705 19.896 165.377 18.216 165.377 16.2C165.377 14.184 164.705 12.5133 163.361 11.188C162.036 9.844 160.393 9.172 158.433 9.172C156.473 9.172 154.821 9.844 153.477 11.188C152.152 12.5133 151.489 14.184 151.489 16.2C151.489 18.216 152.152 19.896 153.477 21.24Z" fill="#ACACAC"/>
<circle cx="16.5" cy="16.5" r="16.5" fill="#2978C2"/>
<circle cx="33.7858" cy="16.5" r="16.5" fill="#0060BB" fill-opacity="0.44"/>
<path fill-rule="evenodd" clip-rule="evenodd" d="M25 31C29.8001 28.0041 33 22.6306 33 16.5C33 10.3694 29.8001 4.99591 25 2C20.1999 4.9959 17 10.3694 17 16.5C17 22.6306 20.1999 28.0041 25 31Z" fill="#003465" fill-opacity="0.94"/>
</svg>
